G04 #@! TF.FileFunction,Legend,Top*
%FSLAX46Y46*%
G04 Gerber Fmt 4.6, Leading zero omitted, Abs format (unit mm)*
G04 Created by KiCad (PCBNEW 4.0.6-e0-6349~52~ubuntu16.10.1) date Wed May  3 13:22:09 2017*
%MOMM*%
%LPD*%
G01*
G04 APERTURE LIST*
%ADD10C,0.100000*%
%ADD11C,0.187500*%
%ADD12C,0.250000*%
%ADD13C,0.120000*%
%ADD14C,0.150000*%
G04 APERTURE END LIST*
D10*
D11*
X124332142Y-106446429D02*
X124082142Y-106446429D01*
X124082142Y-106839286D02*
X124082142Y-106089286D01*
X124439285Y-106089286D01*
X124724999Y-106839286D02*
X124724999Y-106089286D01*
X124974999Y-106625000D01*
X125224999Y-106089286D01*
X125224999Y-106839286D01*
X126153571Y-106839286D02*
X126153571Y-106089286D01*
X126403571Y-106625000D01*
X126653571Y-106089286D01*
X126653571Y-106839286D01*
X127153572Y-106089286D02*
X127296429Y-106089286D01*
X127367857Y-106125000D01*
X127439286Y-106196429D01*
X127475000Y-106339286D01*
X127475000Y-106589286D01*
X127439286Y-106732143D01*
X127367857Y-106803571D01*
X127296429Y-106839286D01*
X127153572Y-106839286D01*
X127082143Y-106803571D01*
X127010714Y-106732143D01*
X126975000Y-106589286D01*
X126975000Y-106339286D01*
X127010714Y-106196429D01*
X127082143Y-106125000D01*
X127153572Y-106089286D01*
X127796428Y-106839286D02*
X127796428Y-106089286D01*
X127975000Y-106089286D01*
X128082143Y-106125000D01*
X128153571Y-106196429D01*
X128189286Y-106267857D01*
X128225000Y-106410714D01*
X128225000Y-106517857D01*
X128189286Y-106660714D01*
X128153571Y-106732143D01*
X128082143Y-106803571D01*
X127975000Y-106839286D01*
X127796428Y-106839286D01*
X128546428Y-106089286D02*
X128546428Y-106696429D01*
X128582143Y-106767857D01*
X128617857Y-106803571D01*
X128689286Y-106839286D01*
X128832143Y-106839286D01*
X128903571Y-106803571D01*
X128939286Y-106767857D01*
X128975000Y-106696429D01*
X128975000Y-106089286D01*
X129689285Y-106839286D02*
X129332142Y-106839286D01*
X129332142Y-106089286D01*
X129939285Y-106446429D02*
X130189285Y-106446429D01*
X130296428Y-106839286D02*
X129939285Y-106839286D01*
X129939285Y-106089286D01*
X130296428Y-106089286D01*
X131582143Y-106839286D02*
X131153571Y-106839286D01*
X131367857Y-106839286D02*
X131367857Y-106089286D01*
X131296428Y-106196429D01*
X131225000Y-106267857D01*
X131153571Y-106303571D01*
X131903571Y-106767857D02*
X131939286Y-106803571D01*
X131903571Y-106839286D01*
X131867857Y-106803571D01*
X131903571Y-106767857D01*
X131903571Y-106839286D01*
X132403572Y-106089286D02*
X132475000Y-106089286D01*
X132546429Y-106125000D01*
X132582143Y-106160714D01*
X132617857Y-106232143D01*
X132653572Y-106375000D01*
X132653572Y-106553571D01*
X132617857Y-106696429D01*
X132582143Y-106767857D01*
X132546429Y-106803571D01*
X132475000Y-106839286D01*
X132403572Y-106839286D01*
X132332143Y-106803571D01*
X132296429Y-106767857D01*
X132260714Y-106696429D01*
X132225000Y-106553571D01*
X132225000Y-106375000D01*
X132260714Y-106232143D01*
X132296429Y-106160714D01*
X132332143Y-106125000D01*
X132403572Y-106089286D01*
X130285714Y-100089286D02*
X130285714Y-99339286D01*
X130714286Y-100089286D01*
X130714286Y-99339286D01*
X131035714Y-100053571D02*
X131142857Y-100089286D01*
X131321428Y-100089286D01*
X131392857Y-100053571D01*
X131428571Y-100017857D01*
X131464286Y-99946429D01*
X131464286Y-99875000D01*
X131428571Y-99803571D01*
X131392857Y-99767857D01*
X131321428Y-99732143D01*
X131178571Y-99696429D01*
X131107143Y-99660714D01*
X131071428Y-99625000D01*
X131035714Y-99553571D01*
X131035714Y-99482143D01*
X131071428Y-99410714D01*
X131107143Y-99375000D01*
X131178571Y-99339286D01*
X131357143Y-99339286D01*
X131464286Y-99375000D01*
X131714286Y-99339286D02*
X132214286Y-99339286D01*
X131892857Y-100089286D01*
X132428572Y-99339286D02*
X132892858Y-99339286D01*
X132642858Y-99625000D01*
X132750000Y-99625000D01*
X132821429Y-99660714D01*
X132857143Y-99696429D01*
X132892858Y-99767857D01*
X132892858Y-99946429D01*
X132857143Y-100017857D01*
X132821429Y-100053571D01*
X132750000Y-100089286D01*
X132535715Y-100089286D01*
X132464286Y-100053571D01*
X132428572Y-100017857D01*
X133214286Y-100089286D02*
X133214286Y-99339286D01*
X133464286Y-99875000D01*
X133714286Y-99339286D01*
X133714286Y-100089286D01*
D12*
X129994975Y-92500000D02*
G75*
G03X129994975Y-92500000I-494975J0D01*
G01*
X127500000Y-91000000D02*
X127500000Y-91500000D01*
X134500000Y-91000000D02*
X127500000Y-91000000D01*
X134500000Y-91850000D02*
X134500000Y-91000000D01*
X134500000Y-98650000D02*
X134500000Y-98000000D01*
X127500000Y-98650000D02*
X134500000Y-98650000D01*
D13*
X131290000Y-84700000D02*
X131290000Y-85870000D01*
X131290000Y-89270000D02*
X131290000Y-88100000D01*
X126710000Y-88510000D02*
X126710000Y-88100000D01*
X126710000Y-85460000D02*
X126710000Y-85870000D01*
X127480000Y-84700000D02*
X131290000Y-84700000D01*
X127480000Y-84700000D02*
X126710000Y-85460000D01*
X127480000Y-89270000D02*
X131290000Y-89270000D01*
X127480000Y-89270000D02*
X126710000Y-88510000D01*
X132450000Y-102700000D02*
X132950000Y-102700000D01*
X132950000Y-102700000D02*
X132950000Y-105300000D01*
X132950000Y-105300000D02*
X132450000Y-105300000D01*
X132950000Y-103650000D02*
X133850000Y-103050000D01*
X133850000Y-103050000D02*
X134050000Y-103050000D01*
X132950000Y-104350000D02*
X133850000Y-104950000D01*
X133850000Y-104950000D02*
X134050000Y-104950000D01*
D14*
X127588095Y-99252381D02*
X127588095Y-100061905D01*
X127635714Y-100157143D01*
X127683333Y-100204762D01*
X127778571Y-100252381D01*
X127969048Y-100252381D01*
X128064286Y-100204762D01*
X128111905Y-100157143D01*
X128159524Y-100061905D01*
X128159524Y-99252381D01*
X129159524Y-100252381D02*
X128588095Y-100252381D01*
X128873809Y-100252381D02*
X128873809Y-99252381D01*
X128778571Y-99395238D01*
X128683333Y-99490476D01*
X128588095Y-99538095D01*
X125533334Y-84907143D02*
X125485715Y-84954762D01*
X125342858Y-85002381D01*
X125247620Y-85002381D01*
X125104762Y-84954762D01*
X125009524Y-84859524D01*
X124961905Y-84764286D01*
X124914286Y-84573810D01*
X124914286Y-84430952D01*
X124961905Y-84240476D01*
X125009524Y-84145238D01*
X125104762Y-84050000D01*
X125247620Y-84002381D01*
X125342858Y-84002381D01*
X125485715Y-84050000D01*
X125533334Y-84097619D01*
X126485715Y-85002381D02*
X125914286Y-85002381D01*
X126200000Y-85002381D02*
X126200000Y-84002381D01*
X126104762Y-84145238D01*
X126009524Y-84240476D01*
X125914286Y-84288095D01*
X125839048Y-89061429D02*
X126600953Y-89061429D01*
X126220001Y-89442381D02*
X126220001Y-88680476D01*
X131723809Y-101826190D02*
X131723809Y-102302381D01*
X131390476Y-101302381D02*
X131723809Y-101826190D01*
X132057143Y-101302381D01*
X132914286Y-102302381D02*
X132342857Y-102302381D01*
X132628571Y-102302381D02*
X132628571Y-101302381D01*
X132533333Y-101445238D01*
X132438095Y-101540476D01*
X132342857Y-101588095D01*
M02*
